<?xml version="1.0" encoding="UTF-8"?>
<!DOCTYPE svg PUBLIC "-//W3C//DTD SVG 1.1//EN" "http://www.w3.org/Graphics/SVG/1.1/DTD/svg11.dtd">
<!-- Creator: CorelDRAW X8 -->
<svg xmlns="http://www.w3.org/2000/svg" xml:space="preserve" width="8.26772in" height="7.69685in" version="1.1" style="shape-rendering:geometricPrecision; text-rendering:geometricPrecision; image-rendering:optimizeQuality; fill-rule:evenodd; clip-rule:evenodd"
viewBox="0 0 8268 7697"
 xmlns:xlink="http://www.w3.org/1999/xlink">
 <defs>
  <style type="text/css">
   <![CDATA[
    .str0 {stroke:#FFF212;stroke-width:27.7795}
    .str3 {stroke:#FEFEFE;stroke-width:6.94488}
    .str2 {stroke:#373435;stroke-width:6.94488}
    .str4 {stroke:#F58634;stroke-width:6.94488}
    .str1 {stroke:#ED3237;stroke-width:6.94488}
    .fil0 {fill:none}
    .fil5 {fill:#FEFEFE}
    .fil1 {fill:#373435}
    .fil3 {fill:#FFF212}
    .fil2 {fill:#F58634}
    .fil4 {fill:#ED3237}
   ]]>
  </style>
 </defs>
 <g id="Layer_x0020_1">
  <metadata id="CorelCorpID_0Corel-Layer"/>
  <g>
   <path class="fil0 str0" d="M1823 3799c0,56 -13,103 -40,143 -27,40 -68,70 -121,91 -53,20 -118,30 -194,30 -73,0 -135,-11 -187,-33 -52,-22 -90,-50 -115,-84 -24,-33 -37,-66 -37,-100 0,-22 8,-41 24,-57 16,-16 36,-24 60,-24 21,0 37,6 49,16 11,10 22,25 33,44 20,36 45,63 74,81 29,18 68,27 118,27 41,0 74,-10 100,-28 26,-18 39,-38 39,-62 0,-35 -14,-61 -40,-78 -28,-16 -72,-32 -134,-47 -69,-17 -126,-35 -170,-54 -43,-19 -78,-44 -105,-75 -26,-32 -39,-70 -39,-115 0,-41 12,-79 36,-116 25,-36 60,-65 108,-86 47,-22 104,-32 171,-32 52,0 99,5 141,16 41,11 76,25 104,44 28,18 50,38 64,61 15,22 22,43 22,65 0,23 -8,42 -23,57 -16,15 -38,22 -67,22 -21,0 -38,-6 -53,-18 -14,-11 -31,-29 -50,-53 -15,-20 -33,-36 -54,-48 -21,-11 -49,-17 -85,-17 -36,0 -67,8 -91,23 -24,16 -36,35 -36,59 0,21 9,38 27,52 18,13 41,25 71,34 31,8 72,19 125,32 63,16 114,34 154,55 40,22 70,47 91,76 20,29 30,62 30,99zm684 150c-49,38 -96,67 -142,86 -46,19 -97,28 -154,28 -52,0 -98,-10 -137,-31 -39,-20 -70,-48 -91,-83 -21,-35 -32,-73 -32,-114 0,-56 18,-103 53,-142 35,-39 83,-65 145,-79 13,-3 44,-9 95,-20 51,-10 95,-19 131,-28 37,-9 76,-19 119,-32 -3,-53 -14,-92 -33,-117 -19,-25 -58,-38 -118,-38 -51,0 -90,7 -116,22 -26,14 -48,36 -67,64 -18,29 -32,48 -39,57 -8,9 -25,14 -50,14 -22,0 -42,-7 -59,-22 -16,-15 -24,-33 -24,-56 0,-36 12,-71 37,-104 26,-34 65,-62 118,-83 54,-22 120,-33 200,-33 89,0 159,11 210,32 51,21 87,54 108,99 21,46 32,106 32,182 0,47 -1,87 -1,121 0,33 0,70 -1,110 0,38 7,78 19,119 13,41 19,68 19,80 0,21 -10,40 -29,57 -20,17 -42,25 -67,25 -21,0 -41,-9 -61,-29 -21,-19 -42,-48 -65,-85zm-13 -293c-30,11 -73,22 -130,34 -56,13 -96,22 -117,27 -22,6 -43,17 -63,34 -19,16 -29,39 -29,69 0,31 11,57 35,79 23,21 53,32 91,32 40,0 77,-9 111,-26 33,-18 58,-41 74,-68 19,-31 28,-82 28,-152l0 -29zm909 315l-179 -294 -110 104 0 161c0,39 -10,69 -31,90 -20,21 -44,31 -71,31 -31,0 -56,-10 -73,-31 -18,-21 -27,-51 -27,-92l0 -863c0,-45 8,-80 26,-103 17,-24 42,-35 74,-35 31,0 56,10 74,32 19,21 28,52 28,94l0 491 228 -239c28,-30 50,-50 64,-61 15,-11 33,-16 54,-16 26,0 47,8 64,24 16,16 25,36 25,60 0,30 -28,69 -82,119l-108 98 208 327c15,24 26,43 32,55 7,13 11,25 11,36 0,33 -9,58 -27,76 -17,19 -41,28 -69,28 -25,0 -44,-6 -57,-20 -14,-13 -32,-37 -54,-72zm820 -22c-49,38 -96,67 -142,86 -46,19 -97,28 -154,28 -52,0 -98,-10 -137,-31 -39,-20 -70,-48 -91,-83 -21,-35 -32,-73 -32,-114 0,-56 18,-103 53,-142 35,-39 83,-65 145,-79 13,-3 45,-9 95,-20 51,-10 95,-19 131,-28 37,-9 76,-19 119,-32 -3,-53 -14,-92 -33,-117 -19,-25 -58,-38 -118,-38 -51,0 -90,7 -116,22 -26,14 -48,36 -67,64 -18,29 -32,48 -39,57 -8,9 -24,14 -50,14 -22,0 -42,-7 -59,-22 -16,-15 -24,-33 -24,-56 0,-36 12,-71 37,-104 26,-34 65,-62 118,-83 48,-20 105,-30 173,-33 85,117 217,198 370,217 4,29 7,61 7,96 0,47 -1,87 -1,121 0,33 0,70 -1,110 0,38 7,78 19,119 13,41 19,68 19,80 0,21 -10,40 -29,57 -20,17 -42,25 -67,25 -21,0 -41,-9 -61,-29 -21,-19 -42,-48 -65,-85zm-13 -293c-30,11 -73,22 -130,34 -56,13 -96,22 -117,27 -22,6 -43,17 -63,34 -19,16 -29,39 -29,69 0,31 11,57 35,79 23,21 53,32 91,32 40,0 77,-9 111,-26 34,-18 58,-41 74,-68 19,-31 28,-82 28,-152l0 -29zm1056 143c0,56 -14,103 -41,143 -27,40 -67,70 -120,91 -53,20 -118,30 -194,30 -73,0 -135,-11 -187,-33 -52,-22 -90,-50 -115,-84 -25,-33 -37,-66 -37,-100 0,-22 8,-41 24,-57 15,-16 35,-24 60,-24 21,0 37,6 49,16 11,10 22,25 32,44 21,36 46,63 75,81 29,18 68,27 118,27 41,0 74,-10 100,-28 26,-18 39,-38 39,-62 0,-35 -14,-61 -41,-78 -27,-16 -71,-32 -133,-47 -70,-17 -126,-35 -170,-54 -44,-19 -79,-44 -105,-75 -26,-32 -39,-70 -39,-115 0,-9 0,-18 1,-26 134,-28 249,-104 325,-208 48,0 91,6 129,16 42,11 77,25 105,44 28,18 49,38 64,61 15,22 22,43 22,65 0,23 -8,42 -24,57 -15,15 -37,22 -66,22 -21,0 -39,-6 -53,-18 -15,-11 -31,-29 -50,-53 -16,-20 -34,-36 -54,-48 -21,-11 -49,-17 -85,-17 -36,0 -67,8 -91,23 -24,16 -36,35 -36,59 0,21 9,38 26,52 18,13 42,25 72,34 30,8 72,19 125,32 63,16 114,34 154,55 40,22 70,47 90,76 21,29 31,62 31,99zm183 -541l22 0 0 -122c0,-33 1,-58 3,-77 2,-19 6,-35 14,-48 8,-14 20,-25 34,-34 15,-8 32,-13 50,-13 26,0 49,10 70,29 13,13 22,29 26,48 4,18 5,45 5,79l0 138 75 0c28,0 50,7 65,20 15,14 23,31 23,52 0,28 -11,47 -32,57 -22,11 -53,17 -93,17l-38 0 0 372c0,32 1,56 4,73 2,17 8,31 17,42 10,10 26,16 48,16 11,0 28,-2 48,-7 20,-4 36,-6 47,-6 17,0 31,7 45,20 13,13 19,29 19,48 0,33 -18,58 -53,75 -36,18 -87,26 -154,26 -63,0 -111,-10 -143,-32 -33,-21 -54,-50 -65,-88 -10,-38 -15,-88 -15,-151l0 -388 -26 0c-30,0 -52,-7 -67,-21 -16,-14 -23,-32 -23,-53 0,-21 8,-38 24,-52 16,-13 39,-20 70,-20zm729 97l0 585c0,41 -10,71 -29,92 -19,21 -43,31 -73,31 -30,0 -54,-10 -72,-32 -19,-21 -28,-51 -28,-91l0 -579c0,-41 9,-71 28,-91 18,-20 42,-30 72,-30 30,0 54,10 73,30 19,20 29,49 29,85zm-100 -210c-28,0 -52,-8 -72,-26 -20,-17 -30,-41 -30,-73 0,-28 10,-52 31,-70 20,-19 44,-28 71,-28 26,0 49,8 70,25 20,17 30,41 30,73 0,31 -10,55 -30,73 -19,17 -43,26 -70,26zm1036 668c0,25 -7,52 -22,81 -15,28 -38,55 -69,81 -31,26 -70,47 -117,63 -47,16 -100,24 -159,24 -125,0 -223,-37 -293,-110 -71,-73 -106,-170 -106,-293 0,-83 16,-157 49,-221 32,-63 78,-113 139,-148 61,-35 134,-52 218,-52 53,0 101,8 145,23 43,16 81,35 111,60 30,24 54,50 70,77 16,28 24,53 24,77 0,24 -9,45 -27,62 -18,17 -40,25 -66,25 -17,0 -31,-4 -42,-13 -11,-9 -23,-23 -37,-42 -25,-37 -51,-66 -78,-84 -27,-19 -61,-28 -103,-28 -59,0 -108,23 -144,70 -37,46 -55,110 -55,191 0,38 5,73 14,105 9,32 23,59 41,82 18,22 39,39 64,51 25,11 53,17 83,17 41,0 76,-9 105,-28 29,-19 54,-47 77,-86 12,-23 25,-41 40,-53 14,-13 31,-20 52,-20 25,0 46,10 62,29 16,18 24,38 24,60z"/>
   <path id="1" class="fil1" d="M1823 3799c0,56 -13,103 -40,143 -27,40 -68,70 -121,91 -53,20 -118,30 -194,30 -73,0 -135,-11 -187,-33 -52,-22 -90,-50 -115,-84 -24,-33 -37,-66 -37,-100 0,-22 8,-41 24,-57 16,-16 36,-24 60,-24 21,0 37,6 49,16 11,10 22,25 33,44 20,36 45,63 74,81 29,18 68,27 118,27 41,0 74,-10 100,-28 26,-18 39,-38 39,-62 0,-35 -14,-61 -40,-78 -28,-16 -72,-32 -134,-47 -69,-17 -126,-35 -170,-54 -43,-19 -78,-44 -105,-75 -26,-32 -39,-70 -39,-115 0,-41 12,-79 36,-116 25,-36 60,-65 108,-86 47,-22 104,-32 171,-32 52,0 99,5 141,16 41,11 76,25 104,44 28,18 50,38 64,61 15,22 22,43 22,65 0,23 -8,42 -23,57 -16,15 -38,22 -67,22 -21,0 -38,-6 -53,-18 -14,-11 -31,-29 -50,-53 -15,-20 -33,-36 -54,-48 -21,-11 -49,-17 -85,-17 -36,0 -67,8 -91,23 -24,16 -36,35 -36,59 0,21 9,38 27,52 18,13 41,25 71,34 31,8 72,19 125,32 63,16 114,34 154,55 40,22 70,47 91,76 20,29 30,62 30,99zm684 150c-49,38 -96,67 -142,86 -46,19 -97,28 -154,28 -52,0 -98,-10 -137,-31 -39,-20 -70,-48 -91,-83 -21,-35 -32,-73 -32,-114 0,-56 18,-103 53,-142 35,-39 83,-65 145,-79 13,-3 44,-9 95,-20 51,-10 95,-19 131,-28 37,-9 76,-19 119,-32 -3,-53 -14,-92 -33,-117 -19,-25 -58,-38 -118,-38 -51,0 -90,7 -116,22 -26,14 -48,36 -67,64 -18,29 -32,48 -39,57 -8,9 -25,14 -50,14 -22,0 -42,-7 -59,-22 -16,-15 -24,-33 -24,-56 0,-36 12,-71 37,-104 26,-34 65,-62 118,-83 54,-22 120,-33 200,-33 89,0 159,11 210,32 51,21 87,54 108,99 21,46 32,106 32,182 0,47 -1,87 -1,121 0,33 0,70 -1,110 0,38 7,78 19,119 13,41 19,68 19,80 0,21 -10,40 -29,57 -20,17 -42,25 -67,25 -21,0 -41,-9 -61,-29 -21,-19 -42,-48 -65,-85zm-13 -293c-30,11 -73,22 -130,34 -56,13 -96,22 -117,27 -22,6 -43,17 -63,34 -19,16 -29,39 -29,69 0,31 11,57 35,79 23,21 53,32 91,32 40,0 77,-9 111,-26 33,-18 58,-41 74,-68 19,-31 28,-82 28,-152l0 -29zm909 315l-179 -294 -110 104 0 161c0,39 -10,69 -31,90 -20,21 -44,31 -71,31 -31,0 -56,-10 -73,-31 -18,-21 -27,-51 -27,-92l0 -863c0,-45 8,-80 26,-103 17,-24 42,-35 74,-35 31,0 56,10 74,32 19,21 28,52 28,94l0 491 228 -239c28,-30 50,-50 64,-61 15,-11 33,-16 54,-16 26,0 47,8 64,24 16,16 25,36 25,60 0,30 -28,69 -82,119l-108 98 208 327c15,24 26,43 32,55 7,13 11,25 11,36 0,33 -9,58 -27,76 -17,19 -41,28 -69,28 -25,0 -44,-6 -57,-20 -14,-13 -32,-37 -54,-72zm820 -22c-49,38 -96,67 -142,86 -46,19 -97,28 -154,28 -52,0 -98,-10 -137,-31 -39,-20 -70,-48 -91,-83 -21,-35 -32,-73 -32,-114 0,-56 18,-103 53,-142 35,-39 83,-65 145,-79 13,-3 45,-9 95,-20 51,-10 95,-19 131,-28 37,-9 76,-19 119,-32 -3,-53 -14,-92 -33,-117 -19,-25 -58,-38 -118,-38 -51,0 -90,7 -116,22 -26,14 -48,36 -67,64 -18,29 -32,48 -39,57 -8,9 -24,14 -50,14 -22,0 -42,-7 -59,-22 -16,-15 -24,-33 -24,-56 0,-36 12,-71 37,-104 26,-34 65,-62 118,-83 48,-20 105,-30 173,-33 85,117 217,198 370,217 4,29 7,61 7,96 0,47 -1,87 -1,121 0,33 0,70 -1,110 0,38 7,78 19,119 13,41 19,68 19,80 0,21 -10,40 -29,57 -20,17 -42,25 -67,25 -21,0 -41,-9 -61,-29 -21,-19 -42,-48 -65,-85zm-13 -293c-30,11 -73,22 -130,34 -56,13 -96,22 -117,27 -22,6 -43,17 -63,34 -19,16 -29,39 -29,69 0,31 11,57 35,79 23,21 53,32 91,32 40,0 77,-9 111,-26 34,-18 58,-41 74,-68 19,-31 28,-82 28,-152l0 -29zm1056 143c0,56 -14,103 -41,143 -27,40 -67,70 -120,91 -53,20 -118,30 -194,30 -73,0 -135,-11 -187,-33 -52,-22 -90,-50 -115,-84 -25,-33 -37,-66 -37,-100 0,-22 8,-41 24,-57 15,-16 35,-24 60,-24 21,0 37,6 49,16 11,10 22,25 32,44 21,36 46,63 75,81 29,18 68,27 118,27 41,0 74,-10 100,-28 26,-18 39,-38 39,-62 0,-35 -14,-61 -41,-78 -27,-16 -71,-32 -133,-47 -70,-17 -126,-35 -170,-54 -44,-19 -79,-44 -105,-75 -26,-32 -39,-70 -39,-115 0,-9 0,-18 1,-26 134,-28 249,-104 325,-208 48,0 91,6 129,16 42,11 77,25 105,44 28,18 49,38 64,61 15,22 22,43 22,65 0,23 -8,42 -24,57 -15,15 -37,22 -66,22 -21,0 -39,-6 -53,-18 -15,-11 -31,-29 -50,-53 -16,-20 -34,-36 -54,-48 -21,-11 -49,-17 -85,-17 -36,0 -67,8 -91,23 -24,16 -36,35 -36,59 0,21 9,38 26,52 18,13 42,25 72,34 30,8 72,19 125,32 63,16 114,34 154,55 40,22 70,47 90,76 21,29 31,62 31,99zm183 -541l22 0 0 -122c0,-33 1,-58 3,-77 2,-19 6,-35 14,-48 8,-14 20,-25 34,-34 15,-8 32,-13 50,-13 26,0 49,10 70,29 13,13 22,29 26,48 4,18 5,45 5,79l0 138 75 0c28,0 50,7 65,20 15,14 23,31 23,52 0,28 -11,47 -32,57 -22,11 -53,17 -93,17l-38 0 0 372c0,32 1,56 4,73 2,17 8,31 17,42 10,10 26,16 48,16 11,0 28,-2 48,-7 20,-4 36,-6 47,-6 17,0 31,7 45,20 13,13 19,29 19,48 0,33 -18,58 -53,75 -36,18 -87,26 -154,26 -63,0 -111,-10 -143,-32 -33,-21 -54,-50 -65,-88 -10,-38 -15,-88 -15,-151l0 -388 -26 0c-30,0 -52,-7 -67,-21 -16,-14 -23,-32 -23,-53 0,-21 8,-38 24,-52 16,-13 39,-20 70,-20zm729 97l0 585c0,41 -10,71 -29,92 -19,21 -43,31 -73,31 -30,0 -54,-10 -72,-32 -19,-21 -28,-51 -28,-91l0 -579c0,-41 9,-71 28,-91 18,-20 42,-30 72,-30 30,0 54,10 73,30 19,20 29,49 29,85zm-100 -210c-28,0 -52,-8 -72,-26 -20,-17 -30,-41 -30,-73 0,-28 10,-52 31,-70 20,-19 44,-28 71,-28 26,0 49,8 70,25 20,17 30,41 30,73 0,31 -10,55 -30,73 -19,17 -43,26 -70,26zm1036 668c0,25 -7,52 -22,81 -15,28 -38,55 -69,81 -31,26 -70,47 -117,63 -47,16 -100,24 -159,24 -125,0 -223,-37 -293,-110 -71,-73 -106,-170 -106,-293 0,-83 16,-157 49,-221 32,-63 78,-113 139,-148 61,-35 134,-52 218,-52 53,0 101,8 145,23 43,16 81,35 111,60 30,24 54,50 70,77 16,28 24,53 24,77 0,24 -9,45 -27,62 -18,17 -40,25 -66,25 -17,0 -31,-4 -42,-13 -11,-9 -23,-23 -37,-42 -25,-37 -51,-66 -78,-84 -27,-19 -61,-28 -103,-28 -59,0 -108,23 -144,70 -37,46 -55,110 -55,191 0,38 5,73 14,105 9,32 23,59 41,82 18,22 39,39 64,51 25,11 53,17 83,17 41,0 76,-9 105,-28 29,-19 54,-47 77,-86 12,-23 25,-41 40,-53 14,-13 31,-20 52,-20 25,0 46,10 62,29 16,18 24,38 24,60z"/>
  </g>
  <g>
   <path class="fil2" d="M4470 2457c272,0 492,215 492,479 0,264 -220,479 -492,479 -272,0 -492,-215 -492,-479 0,-264 220,-479 492,-479zm0 26c258,0 467,203 467,453 0,251 -209,454 -467,454 -257,0 -466,-203 -466,-454 0,-250 209,-453 466,-453z"/>
   <path class="fil3" d="M4470 2483c258,0 467,203 467,453 0,251 -209,454 -467,454 -257,0 -466,-203 -466,-454 0,-250 209,-453 466,-453zm-281 345c199,46 387,3 556,-185 -6,153 7,284 10,426 -5,100 -148,142 -280,76 -98,-62 -326,-280 -286,-317zm281 -229c11,22 60,-57 134,-46l90 0c-103,-55 -174,-45 -224,46zm-340 119c72,-48 145,-94 204,-70 43,2 44,-8 -1,-32 -81,-4 -181,41 -203,102z"/>
   <path class="fil1" d="M4130 2718c72,-48 145,-94 204,-70 43,2 44,-8 -1,-32 -81,-4 -181,41 -203,102z"/>
   <path class="fil1" d="M4470 2599c11,22 60,-57 134,-46l90 0c-103,-55 -174,-45 -224,46z"/>
   <path class="fil4 str1" d="M4189 2828c199,46 387,3 556,-185 -6,153 7,284 10,426 -5,100 -148,142 -280,76 -98,-62 -326,-280 -286,-317zm60 40l0 0c-4,-3 -9,-5 -14,-8 49,8 95,10 140,6 50,-5 97,-16 142,-33 74,-30 143,-78 206,-142l5 282 2 -74 12 132 -12 -1c-138,1 -241,14 -153,90 1,-1 2,-2 3,-4 45,44 -14,58 -63,20 -102,-59 -193,-143 -268,-268zm304 265l-36 3c14,0 26,0 36,-3z"/>
   <path class="fil1 str2" d="M4249 2868l0 0c176,89 444,16 474,-177l5 282 -1 57 3 0c-138,1 -241,14 -153,90 -6,7 -14,11 -24,13l-36 3c-102,-59 -193,-143 -268,-268zm126 -2c50,-5 97,-16 142,-33 -45,18 -93,29 -142,33z"/>
   <path class="fil5 str3" d="M4235 2860c192,32 353,-31 488,-169 -31,198 -312,270 -488,169z"/>
   <path class="fil5 str3" d="M4517 3136c28,1 51,-3 63,-20 45,44 -14,58 -63,20z"/>
   <polygon class="fil5 str3" points="4730,2899 4742,3031 4727,3030 "/>
   <path class="fil2 str4" d="M4096 2564c38,-46 76,-89 119,-90 43,-2 62,-7 26,-23 -53,-7 -100,37 -145,113z"/>
   <path class="fil2 str4" d="M4464 2435c56,-15 109,-5 144,17l-11 -13c-36,-36 -84,-42 -144,-20 -21,18 -17,23 11,16z"/>
  </g>
 </g>
</svg>
